<svg version="1.1" id="Layer_1" xmlns="http://www.w3.org/2000/svg" x="0" y="0" width="64" height="64" xml:space="preserve"><style>.st0{fill:#d0d0d0}</style><path class="st0" d="M43.3 21.8c-.4-.4-.9-.4-1.3 0l-9.9 9.9-9.9-9.9c-.4-.4-.9-.4-1.3 0s-.4.9 0 1.3l9.9 9.9-9.9 9.9c-.4.4-.4.9 0 1.3.2.2.4.3.6.3s.5-.1.6-.3l9.9-9.9 9.9 9.9c.2.2.4.3.6.3s.5-.1.6-.3c.4-.4.4-.9 0-1.3L33.4 33l9.9-9.9c.3-.4.3-.9 0-1.3z"/><path class="st0" d="M32.1 8.2C18.4 8.2 7.3 19.3 7.3 33c0 13.7 11.1 24.8 24.8 24.8 13.7 0 24.8-11.1 24.8-24.8 0-13.7-11.2-24.8-24.8-24.8zm0 47.8c-12.7 0-23-10.3-23-23s10.3-23 23-23 23 10.3 23 23-10.3 23-23 23z"/></svg>