<svg xmlns="http://www.w3.org/2000/svg" viewBox="0 0 1920 3281"><linearGradient id="a" gradientUnits="userSpaceOnUse" x1="512.217" y1="3272.365" x2="512.217" y2="2242.977"><stop offset=".094" stop-color="#fff"/><stop offset=".352" stop-color="#fdfeff"/><stop offset=".503" stop-color="#f4fcff"/><stop offset=".626" stop-color="#e6f8ff"/><stop offset=".735" stop-color="#d2f2ff"/><stop offset=".834" stop-color="#b8ebff"/><stop offset=".924" stop-color="#99e1ff"/><stop offset="1" stop-color="#78d8ff"/></linearGradient><path d="M994 2728.7c-46.7-89.2-134.6-149.7-227.6-183.9-93-34.3-192.3-45.5-290.3-58.9-98-13.4-197.2-29.7-286.6-72.9-45.7-22.1-87.7-52.2-124-88.2-24.7-24.5-46.9-52-65.7-81.8v985c80.2 56.4 190 49.7 287.1 31 197.6-38 387-112 569.9-197.6 47.7-22.3 96.8-46.9 129.2-89.1 52-67.7 47.7-167.9 8-243.6z" opacity=".25" fill="url(#a)"/><linearGradient id="b" gradientUnits="userSpaceOnUse" x1="1480.539" y1="2027.456" x2="1480.539" y2="983.297"><stop offset=".202" stop-color="#fff"/><stop offset=".311" stop-color="#f6fcff"/><stop offset=".493" stop-color="#dcf5ff"/><stop offset=".725" stop-color="#b2e9ff"/><stop offset=".996" stop-color="#79d8ff"/><stop offset="1" stop-color="#78d8ff"/></linearGradient><path d="M1920 983.3c-9.1 34.1-47 75.6-65.5 94-72 71.5-145.5 80.4-259.5 93.4-113.9 13-271.5 8.4-358 46-51 22.1-90.3 50.9-122.9 90.8-60.1 73.5-84.8 170-67.7 263.3 6.4 35.1 17.5 68.8 32.1 98.2 65.6 132.2 255.4 186.6 370.1 236.2 134 57.9 329 103.4 471.4 122.3V983.3z" opacity=".25" fill="url(#b)"/><linearGradient id="c" gradientUnits="userSpaceOnUse" x1="409.816" y1="1525.992" x2="409.816" y2="8.797"><stop offset=".215" stop-color="#fff"/><stop offset="1" stop-color="#78d8ff"/></linearGradient><path d="M758.9 610C698.7 532.4 609 487.3 520.4 462.8 359.7 418.5 90.5 379.8 0 8.8V1526c31-16.4 56.7-45.8 69-81.7 14.4-41.9 11.3-88.7 21.6-132.1 20.9-88.3 94.8-150 172.4-178.3 77.6-28.3 160.6-30 241.8-40.3s165.1-31.3 227.3-90.4c49.8-47.3 81.8-117.4 86.8-190.3s-17.1-147.7-60-202.9z" opacity=".25" fill="url(#c)"/></svg>