<svg xmlns="http://www.w3.org/2000/svg" viewBox="0 0 1920 1519.4"><linearGradient id="a" gradientUnits="userSpaceOnUse" x1="511.954" y1="1760.852" x2="511.954" y2="3280.252" gradientTransform="matrix(1 0 0 -1 0 3280.252)"><stop offset=".208" stop-color="#fff"/><stop offset="1" stop-color="#78d8ff"/></linearGradient><path d="M949.5 606.7C874.2 529.5 758.8 496 651.2 460.2c-184.6-61.5-366.2-141.6-504-267.1-41-37.4-77.3-78.9-107.7-123.6C24.4 47.1 10.7 23.9-1.4 0v1519.4c39.6-16.2 72.4-45.8 88.1-82.1 18-41.7 14.2-88.3 27-131.5 26.2-87.9 118.5-149.3 215.6-177.5s200.9-29.9 302.3-40.1 206.5-31.2 284.3-90c62.3-47.1 102.3-116.9 108.5-189.5 6.4-72.6-21.3-147-74.9-202z" opacity=".31" fill="url(#a)"/></svg>