<svg xmlns="http://www.w3.org/2000/svg" viewBox="0 0 1920 3281"><linearGradient id="a" gradientUnits="userSpaceOnUse" x1="514.202" y1="3280.822" x2="514.202" y2="2251.434"><stop offset="0" stop-color="#fff"/><stop offset=".333" stop-color="#fdfeff"/><stop offset=".496" stop-color="#f5fcff"/><stop offset=".622" stop-color="#e8f8ff"/><stop offset=".73" stop-color="#d5f3ff"/><stop offset=".825" stop-color="#bdecff"/><stop offset=".912" stop-color="#9fe3ff"/><stop offset=".99" stop-color="#7dd9ff"/><stop offset="1" stop-color="#78d8ff"/></linearGradient><path d="M996 2737.1c-46.7-89.2-134.6-149.7-227.6-183.9-93-34.3-192.3-45.5-290.3-58.9-98-13.4-197.2-29.7-286.6-72.9-45.7-22.1-87.7-52.2-124-88.2-24.7-24.5-46.9-52-65.7-81.8v985c80.2 56.4 190 49.7 287.1 31 197.6-38 387-112 569.9-197.6 47.7-22.3 96.8-46.9 129.2-89.1 52-67.7 47.7-167.8 8-243.6z" opacity=".31" fill="url(#a)"/><linearGradient id="b" gradientUnits="userSpaceOnUse" x1="1503.229" y1="2059.982" x2="1503.229" y2="1205.785"><stop offset="0" stop-color="#fff"/><stop offset=".135" stop-color="#f7fdff"/><stop offset=".349" stop-color="#dff6ff"/><stop offset=".617" stop-color="#baebff"/><stop offset=".924" stop-color="#86dcff"/><stop offset="1" stop-color="#78d8ff"/></linearGradient><path d="M1920.9 1205.8c-26.8 23.4-56.3 43.4-87.8 59-80 39.6-168.8 54.5-256.5 66.8s-176.5 22.6-259.8 54c-83.2 31.4-161.8 86.8-203.7 168.5-31.9 62.3-39.7 143.6-4 206.1 63.2 110.5 245.7 155.9 356.1 197.3 129.6 48.6 318.3 86.8 455.6 102.4v-854.1z" opacity=".31" fill="url(#b)"/><linearGradient id="c" gradientUnits="userSpaceOnUse" x1="512.019" y1="1519.394" x2="512.019" y2="0"><stop offset=".208" stop-color="#fff"/><stop offset="1" stop-color="#78d8ff"/></linearGradient><path d="M949.5 606.7C874.2 529.5 758.8 496 651.2 460.2c-184.6-61.5-366.2-141.6-504-267.1-41-37.4-77.3-78.9-107.7-123.6C24.4 47.1 10.7 23.9-1.4 0v1519.4c39.6-16.2 72.4-45.8 88.1-82.1 18-41.7 14.2-88.3 27-131.5 26.2-87.9 118.5-149.3 215.6-177.5 97.1-28.2 200.9-29.9 302.3-40.1s206.5-31.2 284.3-90c62.3-47.1 102.3-116.9 108.5-189.5 6.4-72.6-21.3-147-74.9-202z" opacity=".31" fill="url(#c)"/></svg>