<svg xmlns="http://www.w3.org/2000/svg" width="32" height="32"><path d="M28.4 14.8c1.8-.1 3-1 3.5-2.1-.6.4-2.7.8-3.8.4-.1-.3-.1-.5-.2-.7-.8-3.1-3.7-5.6-6.8-5.3.2-.1.5-.2.7-.3.3-.1 2.3-.4 2-1.1-.3-.6-2.7.5-3.1.6.6-.3 1.6-.6 1.7-1.3-.9.1-1.8.6-2.5 1.2.2-.3.4-.6.5-.9-2.4 1.6-3.9 4.7-5 7.7-.9-.9-1.7-1.6-2.4-1.9-2-1.1-4.4-2.2-8.2-3.6-.1 1.3.6 2.9 2.7 4-.5-.1-1.3.1-2 .2.3 1.4 1.2 2.6 3.6 3.2-1.1.1-1.7.3-2.2.9.5 1 1.7 2.2 3.9 1.9-2.5 1.1-1 3 1 2.7-3.3 3.5-8.7 3.2-11.8.3 8.1 11 25.6 6.5 28.2-4.1 2 0 3.1-.7 3.8-1.4-1.1.1-2.8-.1-3.6-.4z" fill="#151552"/></svg>