<svg version="1.1" id="Layer_1" xmlns="http://www.w3.org/2000/svg" x="0" y="0" width="100" height="100" xml:space="preserve"><style>.st1{fill:#fff}</style><ellipse cx="43" cy="62.7" rx="42.4" ry="36.9" opacity=".21" fill="#78d8ff"/><path class="st1" d="M86.5 87.2H62.4c-6.3 0-11.3-5.1-11.3-11.3V13.2c0-6.3 5.1-11.3 11.3-11.3h24.1c6.3 0 11.3 5.1 11.3 11.3v62.7c.1 6.3-5 11.3-11.3 11.3z"/><linearGradient id="SVGID_1_" gradientUnits="userSpaceOnUse" x1="49.617" y1="44.534" x2="99.345" y2="44.534"><stop offset="0" stop-color="#57c9e8"/><stop offset=".215" stop-color="#4ec4eb"/><stop offset=".557" stop-color="#37b6f2"/><stop offset=".983" stop-color="#12a0fe"/><stop offset="1" stop-color="#109fff"/></linearGradient><path d="M90.5 88.7H58.4c-4.9 0-8.8-3.9-8.8-8.8V9.2c0-4.9 3.9-8.8 8.8-8.8h32.1c4.9 0 8.8 3.9 8.8 8.8V80c0 4.8-3.9 8.7-8.8 8.7zM58.4 3.3c-3.2 0-5.8 2.6-5.8 5.8v70.8c0 3.2 2.6 5.8 5.8 5.8h32.1c3.2 0 5.8-2.6 5.8-5.8V9.2c0-3.2-2.6-5.8-5.8-5.8H58.4z" fill="url(#SVGID_1_)"/><path class="st1" d="M67.1 80.6h14.7"/><linearGradient id="SVGID_2_" gradientUnits="userSpaceOnUse" x1="65.634" y1="80.628" x2="83.328" y2="80.628"><stop offset="0" stop-color="#57c9e8"/><stop offset=".215" stop-color="#4ec4eb"/><stop offset=".557" stop-color="#37b6f2"/><stop offset=".983" stop-color="#12a0fe"/><stop offset="1" stop-color="#109fff"/></linearGradient><path d="M81.9 82.1H67.1c-.8 0-1.5-.7-1.5-1.5s.7-1.5 1.5-1.5h14.7c.8 0 1.5.7 1.5 1.5s-.6 1.5-1.4 1.5z" fill="url(#SVGID_2_)"/><path class="st1" d="M51.7 74.1h45.5"/><linearGradient id="SVGID_3_" gradientUnits="userSpaceOnUse" x1="50.266" y1="74.126" x2="98.696" y2="74.126"><stop offset="0" stop-color="#57c9e8"/><stop offset=".215" stop-color="#4ec4eb"/><stop offset=".557" stop-color="#37b6f2"/><stop offset=".983" stop-color="#12a0fe"/><stop offset="1" stop-color="#109fff"/></linearGradient><path d="M97.2 75.6H51.7c-.8 0-1.5-.7-1.5-1.5s.7-1.5 1.5-1.5h45.5c.8 0 1.5.7 1.5 1.5s-.7 1.5-1.5 1.5z" fill="url(#SVGID_3_)"/></svg>