<svg xmlns="http://www.w3.org/2000/svg" width="100" height="100"><ellipse cx="43" cy="62.7" rx="42.4" ry="36.9" opacity=".21" fill="#78d8ff"/><path d="M89.3 1.5H30.7c-5.1 0-9.2 4.1-9.2 9.2v30.7c0 5.1 4.1 9.2 9.2 9.2h36.4l11.3 14.2V50.6h10.8c5.1 0 9.2-4.1 9.2-9.2V10.7c.1-5-4.1-9.2-9.1-9.2z" fill="#fff"/><linearGradient id="a" gradientUnits="userSpaceOnUse" x1="20" y1="33.15" x2="100" y2="33.15"><stop offset="0" stop-color="#57c9e8"/><stop offset=".215" stop-color="#4ec4eb"/><stop offset=".557" stop-color="#37b6f2"/><stop offset=".983" stop-color="#12a0fe"/><stop offset="1" stop-color="#109fff"/></linearGradient><path d="M78.4 66.3c-.5 0-.9-.2-1.2-.6L66.4 52.1H30.7c-5.9 0-10.7-4.8-10.7-10.7V10.7C20 4.8 24.8 0 30.7 0h58.5c6 0 10.8 4.8 10.8 10.7v30.7c0 5.9-4.8 10.7-10.7 10.7H80v12.6c0 .6-.4 1.2-1 1.4-.2.2-.4.2-.6.2zM30.7 3.1c-4.2 0-7.7 3.4-7.7 7.7v30.7c0 4.2 3.4 7.7 7.7 7.7h36.4c.5 0 .9.2 1.2.6l8.6 10.8v-9.8c0-.8.7-1.5 1.5-1.5h10.8c4.2 0 7.7-3.4 7.7-7.7V10.7c0-4.2-3.4-7.7-7.7-7.7H30.7z" fill="url(#a)"/><linearGradient id="b" gradientUnits="userSpaceOnUse" x1="36.994" y1="27.432" x2="82.962" y2="27.432"><stop offset="0" stop-color="#57c9e8"/><stop offset=".215" stop-color="#4ec4eb"/><stop offset=".557" stop-color="#37b6f2"/><stop offset=".983" stop-color="#12a0fe"/><stop offset="1" stop-color="#109fff"/></linearGradient><path d="M64.6 27.4c0 2.6-2.1 4.6-4.6 4.6-2.6 0-4.6-2.1-4.6-4.6s2.1-4.6 4.6-4.6c2.5 0 4.6 2.1 4.6 4.6zm-23-4.6c-2.6 0-4.6 2.1-4.6 4.6s2.1 4.6 4.6 4.6 4.6-2.1 4.6-4.6-2-4.6-4.6-4.6zm36.7 0c-2.6 0-4.6 2.1-4.6 4.6s2.1 4.6 4.6 4.6 4.7-2 4.7-4.6-2.1-4.6-4.7-4.6z" fill="url(#b)"/></svg>