<svg xmlns="http://www.w3.org/2000/svg" width="100" height="100"><ellipse cx="43" cy="62.7" rx="42.4" ry="36.9" opacity=".21" fill="#78d8ff"/><path d="M60 1.4c-21.3 0-38.6 13.8-38.6 30.8 0 6.7 2.7 13 7.3 18l-5.2 15.3 19.4-5.7C48 61.9 53.8 63 60 63c21.3 0 38.6-13.8 38.6-30.8S81.3 1.4 60 1.4z" fill="#fff"/><linearGradient id="a" gradientUnits="userSpaceOnUse" x1="-3534.46" y1="33.5" x2="-3454.385" y2="33.5" gradientTransform="translate(3554.385)"><stop offset="0" stop-color="#57c9e8"/><stop offset=".215" stop-color="#4ec4eb"/><stop offset=".557" stop-color="#37b6f2"/><stop offset=".983" stop-color="#12a0fe"/><stop offset="1" stop-color="#109fff"/></linearGradient><path d="M23.5 67c-.4 0-.8-.2-1-.4-.4-.4-.5-.9-.3-1.5l4.9-14.5C22.4 45.2 20 38.9 20 32.2 19.9 14.5 37.9 0 60 0s40 14.5 40 32.2-18 32.2-40 32.2c-6 0-11.7-1-17.1-3.1L24 66.9c-.2.1-.3.1-.5.1zM60 2.9C39.5 2.9 22.8 16 22.8 32.2c0 6.2 2.4 12.1 7 17.1.4.4.5.9.3 1.4l-4.3 12.7 16.7-4.9c.3-.1.6-.1.9 0 5.2 2 10.7 3.1 16.5 3.1 20.5 0 37.2-13.2 37.2-29.4S80.5 2.9 60 2.9z" fill="url(#a)"/><linearGradient id="b" gradientUnits="userSpaceOnUse" x1="38.141" y1="32.439" x2="81.784" y2="32.439"><stop offset="0" stop-color="#57c9e8"/><stop offset=".215" stop-color="#4ec4eb"/><stop offset=".557" stop-color="#37b6f2"/><stop offset=".983" stop-color="#12a0fe"/><stop offset="1" stop-color="#109fff"/></linearGradient><path d="M60 49.1c-.6 0-1.1-.5-1.1-1.1V17c0-.6.5-1.1 1.1-1.1.6 0 1.1.5 1.1 1.1v31c0 .6-.5 1.1-1.1 1.1zm13.8-3.6c-.6 0-1.1-.5-1.1-1.1v-23c0-.6.5-1.1 1.1-1.1.6 0 1.1.5 1.1 1.1v23c0 .6-.5 1.1-1.1 1.1zm-27.6 0c-.6 0-1.1-.5-1.1-1.1v-23c0-.6.5-1.1 1.1-1.1.6 0 1.1.5 1.1 1.1v23c0 .6-.5 1.1-1.1 1.1zm34.5-5.7c-.6 0-1.1-.5-1.1-1.1V26.8c0-.6.5-1.1 1.1-1.1.6 0 1.1.5 1.1 1.1v11.9c0 .6-.5 1.1-1.1 1.1zm-13.8 0c-.6 0-1.1-.5-1.1-1.1V26.8c0-.6.5-1.1 1.1-1.1s1.1.5 1.1 1.1v11.9c0 .6-.5 1.1-1.1 1.1zm-13.8 0c-.6 0-1.1-.5-1.1-1.1V26.8c0-.6.5-1.1 1.1-1.1.6 0 1.1.5 1.1 1.1v11.9c0 .6-.5 1.1-1.1 1.1zm-13.8 0c-.6 0-1.1-.5-1.1-1.1V26.8c0-.6.5-1.1 1.1-1.1.6 0 1.1.5 1.1 1.1v11.9c0 .6-.5 1.1-1.1 1.1z" fill="url(#b)"/></svg>