<svg xmlns="http://www.w3.org/2000/svg" width="100" height="100"><path d="M100 50c0 27.6-22.4 50-50 50S0 77.6 0 50 22.4 0 50 0s50 22.4 50 50z" fill="#fff"/><path d="M21.9 67.6c5.1 3.3 11.2 5.2 17.7 5.2 21.4 0 33.5-18.1 32.8-34.3 2.3-1.6 4.2-3.7 5.8-6-2.1.9-4.3 1.5-6.6 1.8 2.4-1.4 4.2-3.7 5.1-6.4-2.2 1.3-4.7 2.3-7.3 2.8-2.1-2.2-5.1-3.6-8.4-3.6-7.4 0-12.9 6.9-11.2 14.2-9.6-.5-18.1-5.1-23.8-12-3 5.2-1.6 12 3.6 15.4-1.9-.1-3.7-.6-5.2-1.4-.1 5.3 3.7 10.3 9.2 11.4-1.6.4-3.4.5-5.2.2 1.5 4.6 5.7 7.9 10.8 8-5.1 3.8-11.2 5.5-17.3 4.7z" fill="#000843"/></svg>