<svg xmlns="http://www.w3.org/2000/svg" width="250" height="135.2"><path d="M74.8 60c0 29.7-19.6 39.4-38 39.4C18.5 99.4 0 88.4 0 60V36.4c0-7.6 6.2-13.8 13.8-13.8h4.4V60s-1.7 22.2 18.7 22.2C58.1 82.2 57 60 57 60V36.2c0-7.5 6.1-13.6 13.6-13.6h3.9l.3 37.4zm35.1-37.4H107c-7.8 0-15.2 4.6-15.2 15.2v51.6c0 7 .6 12.8-1.4 17.5-2.7 6.5-7.2 11.3-12.8 14l10.9 14.2s21.1-9.3 21.1-32.8l.3-79.7zM237 74.9c-1.7-4.1-1.5-9-1.5-14.8V37h14.1V22.4h-14.2v-4.9c0-18.8-14.8-17.5-18-17.5v70.3c0 23.8 21.4 33.3 21.4 33.3L250 89.2c-5.7-2.8-10.2-7.7-13-14.3m-33.2-11.7l-16.1.4c-2 11.2-11.8 19.7-23.5 19.7-6.3 0-11.9-2.4-16.2-6.3l39.2-24.1 14.1-8.7c-6-14.6-20.3-24.9-37.1-24.9-22.1 0-40 17.9-40 40 0 4.2.6 8.2 1.8 12.1 1.7 5.3 4.4 10.1 7.9 14.2 7.3 8.5 18.2 13.8 30.3 13.8 20.8 0 37.9-15.9 39.9-36.1h-.3zm-62.3-5c0-13.2 9.5-22.9 22.7-22.9 5 0 9.6 1.6 13.5 4.2l-35.9 21.9c-.2-1-.3-2.1-.3-3.2z" fill="#fff"/><linearGradient id="a" gradientUnits="userSpaceOnUse" x1="24.947" y1="87.839" x2="24.947" y2="57.772"><stop offset=".005" stop-color="#231815" stop-opacity=".35"/><stop offset="1" stop-color="#231815" stop-opacity="0"/></linearGradient><path d="M19.1 86.2c14.7 5.5 26.6-2.3 30.8-8.2-.3.3-.7.6-1.1.8-.1.1-.2.1-.3.2-.3.2-.6.4-1 .6-.1.1-.3.1-.4.2-.3.2-.6.3-.9.5-.2.1-.3.1-.5.2-.3.1-.6.3-1 .4-.2.1-.4.1-.6.2-.3.1-.7.2-1 .3-.2.1-.4.1-.6.2-.4.1-.7.2-1.1.2-.2 0-.4.1-.7.1-.4.1-.8.1-1.3.1-.2 0-.4 0-.6.1-.6 0-1.3.1-2 .1C16.5 82.2 18.2 60 18.2 60V22.6h-4.4c-1 0-1.9.1-2.8.3-.2 0-.3.1-.5.1-.3.1-.6.1-.9.2-5.5 1.7-9.6 7-9.6 13.2v23.5c.3 7.3 2.6 20.2 19.1 26.3z" fill="url(#a)"/></svg>