<?xml version="1.0" encoding="utf-8"?>
<!-- Generator: Adobe Illustrator 23.0.3, SVG Export Plug-In . SVG Version: 6.00 Build 0)  -->
<svg version="1.1" id="Layer_1" xmlns="http://www.w3.org/2000/svg" xmlns:xlink="http://www.w3.org/1999/xlink" x="0px" y="0px"
	 width="64px" height="64px" viewBox="0 0 64 64" style="enable-background:new 0 0 64 64;" xml:space="preserve">
<style type="text/css">
	.st0{fill:#D0D0D0;}
</style>
<g>
	<path class="st0" d="M43.3,21.8c-0.4-0.4-0.9-0.4-1.3,0l-9.9,9.9l-9.9-9.9c-0.4-0.4-0.9-0.4-1.3,0c-0.4,0.4-0.4,0.9,0,1.3l9.9,9.9
		l-9.9,9.9c-0.4,0.4-0.4,0.9,0,1.3c0.2,0.2,0.4,0.3,0.6,0.3s0.5-0.1,0.6-0.3l9.9-9.9l9.9,9.9c0.2,0.2,0.4,0.3,0.6,0.3
		s0.5-0.1,0.6-0.3c0.4-0.4,0.4-0.9,0-1.3L33.4,33l9.9-9.9C43.6,22.7,43.6,22.2,43.3,21.8z"/>
	<path class="st0" d="M32.1,8.2C18.4,8.2,7.3,19.3,7.3,33c0,13.7,11.1,24.8,24.8,24.8c13.7,0,24.8-11.1,24.8-24.8
		C56.9,19.3,45.7,8.2,32.1,8.2z M32.1,56c-12.7,0-23-10.3-23-23s10.3-23,23-23s23,10.3,23,23S44.8,56,32.1,56z"/>
</g>
</svg>
