<?xml version="1.0" encoding="utf-8"?>
<!-- Generator: Adobe Illustrator 24.0.1, SVG Export Plug-In . SVG Version: 6.00 Build 0)  -->
<svg version="1.1" id="Layer_1" xmlns="http://www.w3.org/2000/svg" xmlns:xlink="http://www.w3.org/1999/xlink" x="0px" y="0px"
	 viewBox="0 0 1920 3281" style="enable-background:new 0 0 1920 3281;" xml:space="preserve">
<style type="text/css">
	.st0{opacity:0.31;fill:url(#SVGID_1_);}
	.st1{opacity:0.31;fill:url(#SVGID_2_);}
	.st2{opacity:0.31;fill:url(#SVGID_3_);}
</style>
<g>
	<linearGradient id="SVGID_1_" gradientUnits="userSpaceOnUse" x1="514.202" y1="3280.8215" x2="514.202" y2="2251.4341">
		<stop  offset="0" style="stop-color:#FFFFFF"/>
		<stop  offset="0.3328" style="stop-color:#FDFEFF"/>
		<stop  offset="0.496" style="stop-color:#F5FCFF"/>
		<stop  offset="0.6222" style="stop-color:#E8F8FF"/>
		<stop  offset="0.7296" style="stop-color:#D5F3FF"/>
		<stop  offset="0.8248" style="stop-color:#BDECFF"/>
		<stop  offset="0.9116" style="stop-color:#9FE3FF"/>
		<stop  offset="0.9902" style="stop-color:#7DD9FF"/>
		<stop  offset="1" style="stop-color:#78D8FF"/>
	</linearGradient>
	<path class="st0" d="M996,2737.1c-46.7-89.2-134.6-149.7-227.6-183.9c-93-34.3-192.3-45.5-290.3-58.9
		c-98-13.4-197.2-29.7-286.6-72.9c-45.7-22.1-87.7-52.2-124-88.2c-24.7-24.5-46.9-52-65.7-81.8v985c80.2,56.4,190,49.7,287.1,31
		c197.6-38,387-112,569.9-197.6c47.7-22.3,96.8-46.9,129.2-89.1C1040,2913,1035.7,2812.9,996,2737.1z"/>
	<linearGradient id="SVGID_2_" gradientUnits="userSpaceOnUse" x1="1503.2286" y1="2059.9824" x2="1503.2286" y2="1205.7847">
		<stop  offset="0" style="stop-color:#FFFFFF"/>
		<stop  offset="0.1347" style="stop-color:#F7FDFF"/>
		<stop  offset="0.3492" style="stop-color:#DFF6FF"/>
		<stop  offset="0.6165" style="stop-color:#BAEBFF"/>
		<stop  offset="0.9236" style="stop-color:#86DCFF"/>
		<stop  offset="1" style="stop-color:#78D8FF"/>
	</linearGradient>
	<path class="st1" d="M1920.9,1205.8c-26.8,23.4-56.3,43.4-87.8,59c-80,39.6-168.8,54.5-256.5,66.8s-176.5,22.6-259.8,54
		c-83.2,31.4-161.8,86.8-203.7,168.5c-31.9,62.3-39.7,143.6-4,206.1c63.2,110.5,245.7,155.9,356.1,197.3
		c129.6,48.6,318.3,86.8,455.6,102.4V1205.8z"/>
	<linearGradient id="SVGID_3_" gradientUnits="userSpaceOnUse" x1="512.019" y1="1519.3936" x2="512.019" y2="0">
		<stop  offset="0.2085" style="stop-color:#FFFFFF"/>
		<stop  offset="1" style="stop-color:#78D8FF"/>
	</linearGradient>
	<path class="st2" d="M949.5,606.7C874.2,529.5,758.8,496,651.2,460.2c-184.6-61.5-366.2-141.6-504-267.1
		c-41-37.4-77.3-78.9-107.7-123.6C24.4,47.1,10.7,23.9-1.4,0v1519.4c39.6-16.2,72.4-45.8,88.1-82.1c18-41.7,14.2-88.3,27-131.5
		c26.2-87.9,118.5-149.3,215.6-177.5c97.1-28.2,200.9-29.9,302.3-40.1s206.5-31.2,284.3-90c62.3-47.1,102.3-116.9,108.5-189.5
		C1030.8,736.1,1003.1,661.7,949.5,606.7z"/>
</g>
<g>
</g>
<g>
</g>
<g>
</g>
<g>
</g>
<g>
</g>
<g>
</g>
<g>
</g>
<g>
</g>
<g>
</g>
<g>
</g>
<g>
</g>
<g>
</g>
<g>
</g>
<g>
</g>
<g>
</g>
</svg>
