<?xml version="1.0" encoding="utf-8"?>
<!-- Generator: Adobe Illustrator 23.1.1, SVG Export Plug-In . SVG Version: 6.00 Build 0)  -->
<svg version="1.1" id="Layer_1" xmlns="http://www.w3.org/2000/svg" xmlns:xlink="http://www.w3.org/1999/xlink" x="0px" y="0px"
	 viewBox="0 0 1920 3281" style="enable-background:new 0 0 1920 3281;" xml:space="preserve">
<style type="text/css">
	.st0{opacity:0.25;fill:url(#SVGID_1_);}
	.st1{opacity:0.25;fill:url(#SVGID_2_);}
	.st2{opacity:0.25;fill:url(#SVGID_3_);}
</style>
<g>
	<linearGradient id="SVGID_1_" gradientUnits="userSpaceOnUse" x1="512.2175" y1="3272.365" x2="512.2175" y2="2242.9775">
		<stop  offset="9.386504e-02" style="stop-color:#FFFFFF"/>
		<stop  offset="0.3516" style="stop-color:#FDFEFF"/>
		<stop  offset="0.5027" style="stop-color:#F4FCFF"/>
		<stop  offset="0.6263" style="stop-color:#E6F8FF"/>
		<stop  offset="0.735" style="stop-color:#D2F2FF"/>
		<stop  offset="0.8339" style="stop-color:#B8EBFF"/>
		<stop  offset="0.9244" style="stop-color:#99E1FF"/>
		<stop  offset="1" style="stop-color:#78D8FF"/>
	</linearGradient>
	<path class="st0" d="M994,2728.7c-46.7-89.2-134.6-149.7-227.6-183.9c-93-34.3-192.3-45.5-290.3-58.9
		c-98-13.4-197.2-29.7-286.6-72.9c-45.7-22.1-87.7-52.2-124-88.2c-24.7-24.5-46.9-52-65.7-81.8v985c80.2,56.4,190,49.7,287.1,31
		c197.6-38,387-112,569.9-197.6c47.7-22.3,96.8-46.9,129.2-89.1C1038,2904.6,1033.7,2804.4,994,2728.7z"/>
	<linearGradient id="SVGID_2_" gradientUnits="userSpaceOnUse" x1="1480.5388" y1="2027.4561" x2="1480.5388" y2="983.2971">
		<stop  offset="0.2017" style="stop-color:#FFFFFF"/>
		<stop  offset="0.3107" style="stop-color:#F6FCFF"/>
		<stop  offset="0.4926" style="stop-color:#DCF5FF"/>
		<stop  offset="0.7249" style="stop-color:#B2E9FF"/>
		<stop  offset="0.9961" style="stop-color:#79D8FF"/>
		<stop  offset="1" style="stop-color:#78D8FF"/>
	</linearGradient>
	<path class="st1" d="M1920,983.3c-9.1,34.1-47,75.6-65.5,94c-72,71.5-145.5,80.4-259.5,93.4c-113.9,13-271.5,8.4-358,46
		c-51,22.1-90.3,50.9-122.9,90.8c-60.1,73.5-84.8,170-67.7,263.3c6.4,35.1,17.5,68.8,32.1,98.2c65.6,132.2,255.4,186.6,370.1,236.2
		c134,57.9,329,103.4,471.4,122.3V983.3z"/>
	<linearGradient id="SVGID_3_" gradientUnits="userSpaceOnUse" x1="409.8159" y1="1525.9915" x2="409.8159" y2="8.7969">
		<stop  offset="0.2151" style="stop-color:#FFFFFF"/>
		<stop  offset="1" style="stop-color:#78D8FF"/>
	</linearGradient>
	<path class="st2" d="M758.9,610c-60.2-77.6-149.9-122.7-238.5-147.2C359.7,418.5,90.5,379.8,0,8.8V1526c31-16.4,56.7-45.8,69-81.7
		c14.4-41.9,11.3-88.7,21.6-132.1c20.9-88.3,94.8-150,172.4-178.3c77.6-28.3,160.6-30,241.8-40.3s165.1-31.3,227.3-90.4
		c49.8-47.3,81.8-117.4,86.8-190.3C823.9,740,801.8,665.2,758.9,610z"/>
</g>
</svg>
