<?xml version="1.0" encoding="utf-8"?>
<!-- Generator: Adobe Illustrator 23.0.3, SVG Export Plug-In . SVG Version: 6.00 Build 0)  -->
<svg version="1.1" id="Layer_1" xmlns="http://www.w3.org/2000/svg" xmlns:xlink="http://www.w3.org/1999/xlink" x="0px" y="0px"
	 width="32px" height="32px" viewBox="0 0 32 32" style="enable-background:new 0 0 32 32;" xml:space="preserve">
<style type="text/css">
	.st0{fill:#151552;}
</style>
<g>
	<path id="LinkedIn" class="st0" d="M31.3,19.3v11.3h-6.6V20.1c0-2.7-0.9-4.5-3.3-4.5c-1.8,0-2.9,1.2-3.4,2.4
		c-0.2,0.4-0.2,1-0.2,1.6v11h-6.6c0,0,0.1-17.9,0-19.7h6.6v2.8c0,0,0,0,0,0.1h0v-0.1c0.9-1.3,2.4-3.3,5.9-3.3
		C28.1,10.4,31.3,13.2,31.3,19.3z M4.4,1.4c-2.2,0-3.7,1.5-3.7,3.4c0,1.9,1.4,3.4,3.6,3.4h0c2.3,0,3.7-1.5,3.7-3.4
		C8,2.9,6.7,1.4,4.4,1.4z M1.1,30.6h6.6V10.9H1.1V30.6z"/>
</g>
</svg>
