<?xml version="1.0" encoding="utf-8"?>
<!-- Generator: Adobe Illustrator 23.0.3, SVG Export Plug-In . SVG Version: 6.00 Build 0)  -->
<svg version="1.1" id="Layer_1" xmlns="http://www.w3.org/2000/svg" xmlns:xlink="http://www.w3.org/1999/xlink" x="0px" y="0px"
	 width="32px" height="32px" viewBox="0 0 32 32" style="enable-background:new 0 0 32 32;" xml:space="preserve">
<style type="text/css">
	.st0{fill:#151552;}
</style>
<g>
	<path id="Twitter__x28_alt_x29_" class="st0" d="M28.4,14.8c1.8-0.1,3-1,3.5-2.1c-0.6,0.4-2.7,0.8-3.8,0.4
		c-0.1-0.3-0.1-0.5-0.2-0.7c-0.8-3.1-3.7-5.6-6.8-5.3c0.2-0.1,0.5-0.2,0.7-0.3c0.3-0.1,2.3-0.4,2-1.1c-0.3-0.6-2.7,0.5-3.1,0.6
		C21.3,6,22.3,5.7,22.4,5c-0.9,0.1-1.8,0.6-2.5,1.2c0.2-0.3,0.4-0.6,0.5-0.9c-2.4,1.6-3.9,4.7-5,7.7c-0.9-0.9-1.7-1.6-2.4-1.9
		c-2-1.1-4.4-2.2-8.2-3.6c-0.1,1.3,0.6,2.9,2.7,4c-0.5-0.1-1.3,0.1-2,0.2c0.3,1.4,1.2,2.6,3.6,3.2c-1.1,0.1-1.7,0.3-2.2,0.9
		c0.5,1,1.7,2.2,3.9,1.9c-2.5,1.1-1,3,1,2.7C8.5,23.9,3.1,23.6,0,20.7c8.1,11,25.6,6.5,28.2-4.1c2,0,3.1-0.7,3.8-1.4
		C30.9,15.3,29.2,15.1,28.4,14.8z"/>
</g>
</svg>
