<?xml version="1.0" encoding="utf-8"?>
<!-- Generator: Adobe Illustrator 23.0.3, SVG Export Plug-In . SVG Version: 6.00 Build 0)  -->
<svg version="1.1" id="Layer_1" xmlns="http://www.w3.org/2000/svg" xmlns:xlink="http://www.w3.org/1999/xlink" x="0px" y="0px"
	 width="32px" height="32px" viewBox="0 0 32 32" style="enable-background:new 0 0 32 32;" xml:space="preserve">
<style type="text/css">
	.st0{fill:#151552;}
</style>
<g>
	<path id="Facebook" class="st0" d="M12.5,7.9c0,0.7,0,3.6,0,3.6H9.8V16h2.7v13.2H18V16h3.7c0,0,0.3-2.1,0.5-4.5c-0.5,0-4.2,0-4.2,0
		s0-2.6,0-3s0.6-1.1,1.2-1.1s1.8,0,3,0c0-0.6,0-2.7,0-4.6c-1.5,0-3.3,0-4,0C12.4,2.8,12.5,7.3,12.5,7.9z"/>
</g>
</svg>
