<?xml version="1.0" encoding="utf-8"?>
<!-- Generator: Adobe Illustrator 23.0.3, SVG Export Plug-In . SVG Version: 6.00 Build 0)  -->
<svg version="1.1" id="Layer_1" xmlns="http://www.w3.org/2000/svg" xmlns:xlink="http://www.w3.org/1999/xlink" x="0px" y="0px"
	 width="32px" height="32px" viewBox="0 0 32 32" style="enable-background:new 0 0 32 32;" xml:space="preserve">
<style type="text/css">
	.st0{fill:#ffffff;}
</style>
<g transform="translate(0,-952.36218)">
	<path class="st0" d="M8.1,966.3c3.2,5.2,5.3,7.2,10.6,10.3l4.2-4.1c2.2,0.5,4.9,1.3,7.1,1.3c0.7,0,1.5,0.7,1.5,1.4l0,6.4
		c0,0.7-0.7,1.4-1.5,1.5c-18.3,0-28.9-10.3-29.5-28.1c-0.1-0.7,0.7-1.4,1.4-1.4h7.3c0.8,0,1.5,0.7,1.7,1.1c-0.2,2.4,0.9,5.4,1.4,7.5
		L8.1,966.3z"/>
</g>
</svg>
