<?xml version="1.0" encoding="utf-8"?>
<!-- Generator: Adobe Illustrator 23.0.3, SVG Export Plug-In . SVG Version: 6.00 Build 0)  -->
<svg version="1.1" id="Layer_1" xmlns="http://www.w3.org/2000/svg" xmlns:xlink="http://www.w3.org/1999/xlink" x="0px" y="0px"
	 width="100px" height="100px" viewBox="0 0 100 100" style="enable-background:new 0 0 100 100;" xml:space="preserve">
<style type="text/css">
	.st0{opacity:0.21;fill:#78D8FF;}
	.st1{fill:#FFFFFF;}
	.st2{fill:url(#SVGID_1_);}
	.st3{fill:url(#SVGID_2_);}
</style>
<g>
	<g>
		<ellipse class="st0" cx="43" cy="62.7" rx="42.4" ry="36.9"/>
	</g>
</g>
<g>
	<g>
		<g>
			<path class="st1" d="M60,1.4c-21.3,0-38.6,13.8-38.6,30.8c0,6.7,2.7,13,7.3,18l-5.2,15.3l19.4-5.7C48,61.9,53.8,63,60,63
				c21.3,0,38.6-13.8,38.6-30.8C98.6,15.2,81.3,1.4,60,1.4z"/>
			
				<linearGradient id="SVGID_1_" gradientUnits="userSpaceOnUse" x1="-3534.4602" y1="33.5" x2="-3454.3848" y2="33.5" gradientTransform="matrix(1 0 0 1 3554.3848 0)">
				<stop  offset="0" style="stop-color:#57C9E8"/>
				<stop  offset="0.2147" style="stop-color:#4EC4EB"/>
				<stop  offset="0.5572" style="stop-color:#37B6F2"/>
				<stop  offset="0.9828" style="stop-color:#12A0FE"/>
				<stop  offset="1" style="stop-color:#109FFF"/>
			</linearGradient>
			<path class="st2" d="M23.5,67c-0.4,0-0.8-0.2-1-0.4c-0.4-0.4-0.5-0.9-0.3-1.5l4.9-14.5c-4.7-5.4-7.1-11.7-7.1-18.4
				C19.9,14.5,37.9,0,60,0s40,14.5,40,32.2S82,64.4,60,64.4c-6,0-11.7-1-17.1-3.1l-18.9,5.6C23.8,67,23.7,67,23.5,67z M60,2.9
				C39.5,2.9,22.8,16,22.8,32.2c0,6.2,2.4,12.1,7,17.1c0.4,0.4,0.5,0.9,0.3,1.4l-4.3,12.7l16.7-4.9c0.3-0.1,0.6-0.1,0.9,0
				c5.2,2,10.7,3.1,16.5,3.1c20.5,0,37.2-13.2,37.2-29.4C97.1,16,80.5,2.9,60,2.9z"/>
		</g>
	</g>
	<linearGradient id="SVGID_2_" gradientUnits="userSpaceOnUse" x1="38.1406" y1="32.4386" x2="81.7836" y2="32.4386">
		<stop  offset="0" style="stop-color:#57C9E8"/>
		<stop  offset="0.2147" style="stop-color:#4EC4EB"/>
		<stop  offset="0.5572" style="stop-color:#37B6F2"/>
		<stop  offset="0.9828" style="stop-color:#12A0FE"/>
		<stop  offset="1" style="stop-color:#109FFF"/>
	</linearGradient>
	<path class="st3" d="M60,49.1c-0.6,0-1.1-0.5-1.1-1.1v-31c0-0.6,0.5-1.1,1.1-1.1c0.6,0,1.1,0.5,1.1,1.1v31
		C61.1,48.6,60.6,49.1,60,49.1z M73.8,45.5c-0.6,0-1.1-0.5-1.1-1.1v-23c0-0.6,0.5-1.1,1.1-1.1c0.6,0,1.1,0.5,1.1,1.1v23
		C74.9,45,74.4,45.5,73.8,45.5z M46.2,45.5c-0.6,0-1.1-0.5-1.1-1.1v-23c0-0.6,0.5-1.1,1.1-1.1c0.6,0,1.1,0.5,1.1,1.1v23
		C47.3,45,46.8,45.5,46.2,45.5z M80.7,39.8c-0.6,0-1.1-0.5-1.1-1.1V26.8c0-0.6,0.5-1.1,1.1-1.1c0.6,0,1.1,0.5,1.1,1.1v11.9
		C81.8,39.3,81.3,39.8,80.7,39.8z M66.9,39.8c-0.6,0-1.1-0.5-1.1-1.1V26.8c0-0.6,0.5-1.1,1.1-1.1s1.1,0.5,1.1,1.1v11.9
		C68,39.3,67.5,39.8,66.9,39.8z M53.1,39.8c-0.6,0-1.1-0.5-1.1-1.1V26.8c0-0.6,0.5-1.1,1.1-1.1c0.6,0,1.1,0.5,1.1,1.1v11.9
		C54.2,39.3,53.7,39.8,53.1,39.8z M39.3,39.8c-0.6,0-1.1-0.5-1.1-1.1V26.8c0-0.6,0.5-1.1,1.1-1.1c0.6,0,1.1,0.5,1.1,1.1v11.9
		C40.4,39.3,39.9,39.8,39.3,39.8z"/>
</g>
</svg>
