<?xml version="1.0" encoding="utf-8"?>
<!-- Generator: Adobe Illustrator 23.0.3, SVG Export Plug-In . SVG Version: 6.00 Build 0)  -->
<svg version="1.1" id="Layer_1" xmlns="http://www.w3.org/2000/svg" xmlns:xlink="http://www.w3.org/1999/xlink" x="0px" y="0px"
	 width="100px" height="100px" viewBox="0 0 100 100" style="enable-background:new 0 0 100 100;" xml:space="preserve">
<style type="text/css">
	.st0{opacity:0.21;fill:#78D8FF;}
	.st1{fill:#FFFFFF;}
	.st2{fill:url(#SVGID_1_);}
	.st3{fill:url(#SVGID_2_);}
</style>
<g>
	<g>
		<ellipse class="st0" cx="43" cy="62.7" rx="42.4" ry="36.9"/>
	</g>
</g>
<g>
	<g>
		<g>
			<path class="st1" d="M89.3,1.5H30.7c-5.1,0-9.2,4.1-9.2,9.2v30.7c0,5.1,4.1,9.2,9.2,9.2h36.4l11.3,14.2V50.6h10.8
				c5.1,0,9.2-4.1,9.2-9.2V10.7C98.5,5.7,94.3,1.5,89.3,1.5z"/>
			<linearGradient id="SVGID_1_" gradientUnits="userSpaceOnUse" x1="20" y1="33.1495" x2="100" y2="33.1495">
				<stop  offset="0" style="stop-color:#57C9E8"/>
				<stop  offset="0.2147" style="stop-color:#4EC4EB"/>
				<stop  offset="0.5572" style="stop-color:#37B6F2"/>
				<stop  offset="0.9828" style="stop-color:#12A0FE"/>
				<stop  offset="1" style="stop-color:#109FFF"/>
			</linearGradient>
			<path class="st2" d="M78.4,66.3c-0.5,0-0.9-0.2-1.2-0.6L66.4,52.1H30.7c-5.9,0-10.7-4.8-10.7-10.7V10.7C20,4.8,24.8,0,30.7,0
				h58.5C95.2,0,100,4.8,100,10.7v30.7c0,5.9-4.8,10.7-10.7,10.7H80v12.6c0,0.6-0.4,1.2-1,1.4C78.8,66.3,78.6,66.3,78.4,66.3z
				 M30.7,3.1c-4.2,0-7.7,3.4-7.7,7.7v30.7c0,4.2,3.4,7.7,7.7,7.7h36.4c0.5,0,0.9,0.2,1.2,0.6l8.6,10.8v-9.8c0-0.8,0.7-1.5,1.5-1.5
				h10.8c4.2,0,7.7-3.4,7.7-7.7V10.7c0-4.2-3.4-7.7-7.7-7.7H30.7z"/>
		</g>
		<linearGradient id="SVGID_2_" gradientUnits="userSpaceOnUse" x1="36.9938" y1="27.4322" x2="82.9615" y2="27.4322">
			<stop  offset="0" style="stop-color:#57C9E8"/>
			<stop  offset="0.2147" style="stop-color:#4EC4EB"/>
			<stop  offset="0.5572" style="stop-color:#37B6F2"/>
			<stop  offset="0.9828" style="stop-color:#12A0FE"/>
			<stop  offset="1" style="stop-color:#109FFF"/>
		</linearGradient>
		<path class="st3" d="M64.6,27.4c0,2.6-2.1,4.6-4.6,4.6c-2.6,0-4.6-2.1-4.6-4.6s2.1-4.6,4.6-4.6C62.5,22.8,64.6,24.9,64.6,27.4z
			 M41.6,22.8c-2.6,0-4.6,2.1-4.6,4.6s2.1,4.6,4.6,4.6s4.6-2.1,4.6-4.6S44.2,22.8,41.6,22.8z M78.3,22.8c-2.6,0-4.6,2.1-4.6,4.6
			s2.1,4.6,4.6,4.6S83,30,83,27.4S80.9,22.8,78.3,22.8z"/>
	</g>
</g>
</svg>
