<?xml version="1.0" encoding="utf-8"?>
<!-- Generator: Adobe Illustrator 23.0.3, SVG Export Plug-In . SVG Version: 6.00 Build 0)  -->
<svg version="1.1" id="Layer_1" xmlns="http://www.w3.org/2000/svg" xmlns:xlink="http://www.w3.org/1999/xlink" x="0px" y="0px"
	 width="100px" height="100px" viewBox="0 0 100 100" style="enable-background:new 0 0 100 100;" xml:space="preserve">
<style type="text/css">
	.st0{opacity:0.21;fill:#78D8FF;}
	.st1{fill:#FFFFFF;}
	.st2{fill:url(#SVGID_1_);}
	.st3{fill:url(#SVGID_2_);}
	.st4{fill:url(#SVGID_3_);}
</style>
<g>
	<g>
		<ellipse class="st0" cx="43" cy="62.7" rx="42.4" ry="36.9"/>
	</g>
	<g>
		<g>
			<path class="st1" d="M86.5,87.2H62.4c-6.3,0-11.3-5.1-11.3-11.3V13.2c0-6.3,5.1-11.3,11.3-11.3h24.1c6.3,0,11.3,5.1,11.3,11.3
				v62.7C97.9,82.2,92.8,87.2,86.5,87.2z"/>
			<linearGradient id="SVGID_1_" gradientUnits="userSpaceOnUse" x1="49.6172" y1="44.5343" x2="99.3448" y2="44.5343">
				<stop  offset="0" style="stop-color:#57C9E8"/>
				<stop  offset="0.2147" style="stop-color:#4EC4EB"/>
				<stop  offset="0.5572" style="stop-color:#37B6F2"/>
				<stop  offset="0.9828" style="stop-color:#12A0FE"/>
				<stop  offset="1" style="stop-color:#109FFF"/>
			</linearGradient>
			<path class="st2" d="M90.5,88.7H58.4c-4.9,0-8.8-3.9-8.8-8.8V9.2c0-4.9,3.9-8.8,8.8-8.8h32.1c4.9,0,8.8,3.9,8.8,8.8v70.8
				C99.3,84.8,95.4,88.7,90.5,88.7z M58.4,3.3c-3.2,0-5.8,2.6-5.8,5.8v70.8c0,3.2,2.6,5.8,5.8,5.8h32.1c3.2,0,5.8-2.6,5.8-5.8V9.2
				c0-3.2-2.6-5.8-5.8-5.8H58.4z"/>
		</g>
		<g>
			<line class="st1" x1="67.1" y1="80.6" x2="81.8" y2="80.6"/>
			<linearGradient id="SVGID_2_" gradientUnits="userSpaceOnUse" x1="65.6337" y1="80.628" x2="83.328" y2="80.628">
				<stop  offset="0" style="stop-color:#57C9E8"/>
				<stop  offset="0.2147" style="stop-color:#4EC4EB"/>
				<stop  offset="0.5572" style="stop-color:#37B6F2"/>
				<stop  offset="0.9828" style="stop-color:#12A0FE"/>
				<stop  offset="1" style="stop-color:#109FFF"/>
			</linearGradient>
			<path class="st3" d="M81.9,82.1H67.1c-0.8,0-1.5-0.7-1.5-1.5s0.7-1.5,1.5-1.5h14.7c0.8,0,1.5,0.7,1.5,1.5S82.7,82.1,81.9,82.1z"
				/>
		</g>
		<g>
			<line class="st1" x1="51.7" y1="74.1" x2="97.2" y2="74.1"/>
			<linearGradient id="SVGID_3_" gradientUnits="userSpaceOnUse" x1="50.2659" y1="74.1257" x2="98.6964" y2="74.1257">
				<stop  offset="0" style="stop-color:#57C9E8"/>
				<stop  offset="0.2147" style="stop-color:#4EC4EB"/>
				<stop  offset="0.5572" style="stop-color:#37B6F2"/>
				<stop  offset="0.9828" style="stop-color:#12A0FE"/>
				<stop  offset="1" style="stop-color:#109FFF"/>
			</linearGradient>
			<path class="st4" d="M97.2,75.6H51.7c-0.8,0-1.5-0.7-1.5-1.5c0-0.8,0.7-1.5,1.5-1.5h45.5c0.8,0,1.5,0.7,1.5,1.5
				C98.7,74.9,98,75.6,97.2,75.6z"/>
		</g>
	</g>
</g>
</svg>
