<svg id="Layer_1" data-name="Layer 1" xmlns="http://www.w3.org/2000/svg" width="24" height="23.85" viewBox="0 0 24 23.85"><path d="M12,4.86A4.73,4.73,0,0,0,7.24,9.38c0,2.5,2.06,5.48,4.76,9.76,2.7-4.28,4.76-7.26,4.76-9.76A4.73,4.73,0,0,0,12,4.86Zm0,6.54a1.79,1.79,0,1,1,1.79-1.78A1.78,1.78,0,0,1,12,11.4Z" transform="translate(0 -0.08)"/><path d="M11.92.08a12,12,0,0,1,8.46,3.47A11.51,11.51,0,0,1,24,12,12,12,0,0,1,3.62,20.45,11.51,11.51,0,0,1,0,12,12,12,0,0,1,3.47,3.55,12.27,12.27,0,0,1,11.92.08Zm7.25,4.83a10.19,10.19,0,0,0-7.09-3,9.92,9.92,0,0,0-7.1,3A10.17,10.17,0,0,0,2,12,10.32,10.32,0,0,0,12.08,22.11,10.32,10.32,0,0,0,22.19,12a10.86,10.86,0,0,0-3-7.09Z" transform="translate(0 -0.08)"/></svg>