<svg id="Layer_1" data-name="Layer 1" xmlns="http://www.w3.org/2000/svg" width="24" height="23.85" viewBox="0 0 24 23.85"><path d="M11.92,0a12,12,0,0,1,8.46,3.47A11.51,11.51,0,0,1,24,11.92,12,12,0,0,1,3.62,20.38,11.54,11.54,0,0,1,0,11.92,12,12,0,0,1,3.47,3.47,12.27,12.27,0,0,1,11.92,0ZM11,3.77a.86.86,0,0,1,.9-.9,1,1,0,0,1,.91.9V11h6a1,1,0,0,1,.9.9,1,1,0,0,1-.9.91h-7a1,1,0,0,1-.9-.91V3.77Zm8.15,1.06a10.19,10.19,0,0,0-7.09-3,9.92,9.92,0,0,0-7.1,3,10.19,10.19,0,0,0-3,7.09A10.32,10.32,0,0,0,12.08,22,10.32,10.32,0,0,0,22.19,11.92a10.88,10.88,0,0,0-3-7.09Z"/></svg>