<?xml version="1.0" encoding="utf-8"?>
<!-- Generator: Adobe Illustrator 23.0.3, SVG Export Plug-In . SVG Version: 6.00 Build 0)  -->
<svg version="1.1" id="Layer_1" xmlns="http://www.w3.org/2000/svg" xmlns:xlink="http://www.w3.org/1999/xlink" x="0px" y="0px"
	 width="250px" height="135.2px" viewBox="0 0 250 135.2" style="enable-background:new 0 0 250 135.2;" xml:space="preserve">
<style type="text/css">
	.st0{fill:#3498DB;}
	.st1{fill:url(#SVGID_1_);}
</style>
<g>
	<path class="st0" d="M74.8,60c0,29.7-19.6,39.4-38,39.4C18.5,99.4,0,88.4,0,60V36.4c0-7.6,6.2-13.8,13.8-13.8h4.4V60
		c0,0-1.7,22.2,18.7,22.2C58.1,82.2,57,60,57,60V36.2c0-7.5,6.1-13.6,13.6-13.6h3.9L74.8,60z"/>
	<path class="st0" d="M109.9,22.6H107c-7.8,0-15.2,4.6-15.2,15.2v51.6c0,7,0.6,12.8-1.4,17.5c-2.7,6.5-7.2,11.3-12.8,14l10.9,14.2
		c0,0,21.1-9.3,21.1-32.8L109.9,22.6z"/>
	<path class="st0" d="M237,74.9c-1.7-4.1-1.5-9-1.5-14.8h0v-0.1c0-0.5,0-0.9,0-1.4h0V37h14.1V22.4h-14.2v-4.9
		c0-18.8-14.8-17.5-18-17.5v58.7h0l0,0.9v0.5h0l0,10.2c0,23.8,21.4,33.3,21.4,33.3L250,89.2C244.3,86.4,239.8,81.5,237,74.9"/>
	<path class="st0" d="M203.8,63.2l-16.1,0.4c-2,11.2-11.8,19.7-23.5,19.7c-6.3,0-11.9-2.4-16.2-6.3l39.2-24.1c0,0,0,0,0,0l14.1-8.7
		c-6-14.6-20.3-24.9-37.1-24.9c-22.1,0-40,17.9-40,40c0,4.2,0.6,8.2,1.8,12.1c1.7,5.3,4.4,10.1,7.9,14.2
		c7.3,8.5,18.2,13.8,30.3,13.8c20.8,0,37.9-15.9,39.9-36.1H203.8z M141.5,58.2c0-13.2,9.5-22.9,22.7-22.9c5,0,9.6,1.6,13.5,4.2
		l-35.9,21.9C141.6,60.4,141.5,59.3,141.5,58.2z"/>
	<linearGradient id="SVGID_1_" gradientUnits="userSpaceOnUse" x1="24.9473" y1="87.8388" x2="24.9473" y2="57.7717">
		<stop  offset="4.544005e-03" style="stop-color:#231815;stop-opacity:0.35"/>
		<stop  offset="1" style="stop-color:#231815;stop-opacity:0"/>
	</linearGradient>
	<path class="st1" d="M19.1,86.2c14.7,5.5,26.6-2.3,30.8-8.2c0,0,0,0,0,0c-0.3,0.3-0.7,0.6-1.1,0.8c-0.1,0.1-0.2,0.1-0.3,0.2
		c-0.3,0.2-0.6,0.4-1,0.6c-0.1,0.1-0.3,0.1-0.4,0.2c-0.3,0.2-0.6,0.3-0.9,0.5c-0.2,0.1-0.3,0.1-0.5,0.2c-0.3,0.1-0.6,0.3-1,0.4
		c-0.2,0.1-0.4,0.1-0.6,0.2c-0.3,0.1-0.7,0.2-1,0.3c-0.2,0.1-0.4,0.1-0.6,0.2c-0.4,0.1-0.7,0.2-1.1,0.2c-0.2,0-0.4,0.1-0.7,0.1
		c-0.4,0.1-0.8,0.1-1.3,0.1c-0.2,0-0.4,0-0.6,0.1c-0.6,0-1.3,0.1-2,0.1c0,0,0,0,0,0C16.5,82.2,18.2,60,18.2,60V22.6h-4.4
		c-1,0-1.9,0.1-2.8,0.3c-0.2,0-0.3,0.1-0.5,0.1c-0.3,0.1-0.6,0.1-0.9,0.2C4.1,24.9,0,30.2,0,36.4v23.5C0.3,67.2,2.6,80.1,19.1,86.2z
		"/>
</g>
</svg>
